<svg width="14" height="14" viewBox="0 0 14 14" fill="none" xmlns="http://www.w3.org/2000/svg">
<path d="M0 7.53163V6.34951C0.0218746 6.21832 0.0491086 6.0878 0.0683582 5.95661C0.334384 4.19599 1.2614 2.60224 2.66084 1.50058C4.06028 0.398932 5.82682 -0.127866 7.60144 0.0263471C9.37605 0.18056 11.0256 1.00428 12.2139 2.3308C13.4022 3.65733 14.04 5.38682 13.9981 7.16692C13.9689 8.54187 13.5321 9.87727 12.7428 11.0037C11.9535 12.1301 10.8478 12.9971 9.56503 13.4944C8.89773 13.705 8.21787 13.8734 7.52966 14H6.47182C6.30907 13.979 6.14749 13.958 5.98562 13.9274C4.70643 13.7503 3.50244 13.2177 2.51217 12.3891C1.52189 11.5605 0.78496 10.47 0.38537 9.24247C0.219074 8.68141 0.090081 8.10983 0 7.53163V7.53163ZM1.09202 7.18144C1.12688 8.34848 1.50757 9.47936 2.1849 10.4306C2.86223 11.3818 3.80614 12.1107 4.89787 12.5258C5.98959 12.9408 7.17983 13.0232 8.31834 12.7624C9.45686 12.5016 10.4925 11.9098 11.2945 11.0609C12.0964 10.212 12.6287 9.14398 12.824 7.99287C13.0193 6.84175 12.8687 5.65916 12.3916 4.59341C11.9146 3.52766 11.1323 2.6269 10.1435 2.00538C9.15472 1.38386 8.00427 1.06887 6.83668 1.10085C6.05956 1.12258 5.29461 1.29733 4.58513 1.61504C3.87565 1.93275 3.23542 2.38742 2.70186 2.95261C2.1683 3.5178 1.75188 4.18303 1.47568 4.90944C1.19948 5.63585 1.06871 6.40895 1.09202 7.18571V7.18144Z" fill="#818181"/>
<path d="M7.16487 7.1911C7.77736 7.1911 8.35682 7.1911 8.94219 7.1911C9.08143 7.1748 9.22148 7.21035 9.3361 7.29104C9.45072 7.37172 9.53183 7.49188 9.56339 7.62842C9.59382 7.71936 9.60116 7.81652 9.58561 7.91114C9.57006 8.00576 9.5316 8.09522 9.47367 8.17165C9.41575 8.24808 9.34013 8.30874 9.25322 8.34931C9.1663 8.38988 9.07047 8.40864 8.97466 8.40398C8.17667 8.40747 7.37817 8.40747 6.57785 8.40398C6.49613 8.41136 6.41343 8.4013 6.33603 8.37408C6.25863 8.34686 6.18833 8.30372 6.12925 8.24681C6.07016 8.18991 6.02347 8.12069 5.99338 8.04438C5.96329 7.96808 5.95058 7.88628 5.95493 7.80437C5.95493 7.76501 5.95493 7.72667 5.95493 7.68906C5.95493 6.55379 5.95493 5.41832 5.95493 4.28363C5.95429 4.21732 5.95727 4.15141 5.96433 4.08547C5.98618 3.93796 6.06137 3.80393 6.17624 3.70879C6.29112 3.61366 6.43733 3.5636 6.58639 3.56957C6.73545 3.57554 6.87683 3.63638 6.98372 3.7404C7.09062 3.84441 7.15575 3.98452 7.16573 4.1333C7.16573 4.18228 7.16573 4.23209 7.16573 4.28107V7.1911H7.16487Z" fill="#818181"/>
</svg>
