<svg width="263" height="67" viewBox="0 0 263 67" fill="none" xmlns="http://www.w3.org/2000/svg">
<path d="M60.3832 48.8315L69.2226 36.509C70.428 34.6749 70.428 32.2677 69.2226 30.3764L48.0999 1.31822C47.6408 0.515825 46.8372 0.0573139 45.9188 0H24.2222C23.3038 0.0573139 22.5002 0.515826 22.041 1.26091L0.91837 30.4337C-0.286999 32.2677 -0.286999 34.6749 0.91837 36.5663L22.1558 65.7391C22.6724 66.4842 23.476 66.9427 24.337 67H47.1242L35.0705 50.4363L22.7872 33.4713L35.0705 16.5064L47.3538 33.4713L35.4149 50.0351L58.1447 50.0924C59.0631 50.0924 59.8666 49.5766 60.3832 48.8315Z" fill="url(#paint0_linear)"/>
<path d="M60.3832 48.8315L69.2226 36.509C70.428 34.6749 70.428 32.2677 69.2226 30.3764L48.0999 1.31822C47.6408 0.515825 46.8372 0.0573139 45.9188 0H24.2222C23.3038 0.0573139 22.5002 0.515826 22.041 1.26091L0.91837 30.4337C-0.286999 32.2677 -0.286999 34.6749 0.91837 36.5663L22.1558 65.7391C22.6724 66.4842 23.476 66.9427 24.337 67H47.1242L35.0705 50.4363L22.7872 33.4713L35.0705 16.5064L47.3538 33.4713L35.4149 50.0351L58.1447 50.0924C59.0631 50.0924 59.8666 49.5766 60.3832 48.8315Z" fill="url(#paint1_linear)"/>
<path d="M47.1816 66.9427L35.0705 50.4363L22.7872 33.5287H0C0 34.5603 0.286993 35.5347 0.803579 36.3944L6.48603 44.2464L22.1558 65.7964C22.615 66.4269 23.2464 66.8854 24.05 67.0573" fill="url(#paint2_linear)"/>
<path d="M46.378 0.0573139C46.6076 0.114628 46.7798 0.171942 47.0094 0.28657L35.0705 16.5637L23.2464 0.229256C23.5334 0.114628 23.9352 0 24.2796 0H45.9762C46.0336 0 46.1484 0 46.2058 0C46.2632 0 46.3206 0 46.378 0.0573139Z" fill="url(#paint3_linear)"/>
<path d="M70.0836 33.5286H70.141C70.1984 32.4397 69.854 31.3507 69.2226 30.4337L48.1 1.31821C47.813 0.917011 47.4112 0.573128 47.0094 0.343872L35.0705 16.5637L47.3538 33.5286H70.141" fill="url(#paint4_linear)"/>
<path d="M70.0836 33.5286H70.141C70.1984 32.4397 69.854 31.3507 69.2226 30.4337L48.1 1.31821C47.813 0.917011 47.4112 0.573128 47.0094 0.343872L35.0705 16.5637L47.3538 33.5286H70.141" fill="url(#paint5_linear)"/>
<path d="M262.943 34.7896V41.3233C262.943 41.8965 262.483 42.355 261.909 42.355H255.194V35.8212C255.194 35.2481 255.653 34.7896 256.227 34.7896H262.943Z" fill="white"/>
<path d="M241.246 34.7896H231.603V5.73138H225.06C224.486 5.73138 224.026 6.1899 224.026 6.76304V42.355H239.352H248.65C249.224 42.355 249.684 41.8965 249.684 41.3233V34.8469L241.246 34.7896Z" fill="white"/>
<path d="M149.121 19.1428V16.793V7.96663V7.90931V6.76304C149.121 6.1899 148.662 5.73138 148.146 5.73138C148.146 5.73138 148.146 5.73138 148.088 5.73138H141.66V7.16423V17.8246V28.0265C141.66 31.7519 138.617 34.7896 134.829 34.7896H134.599C130.869 34.7896 127.769 31.7519 127.769 28.0265V21.722V7.16423V5.73138H121.283C120.709 5.73138 120.25 6.1899 120.25 6.76304V7.852V7.90931V16.7357V18.9709C120.25 19.2002 120.25 19.4867 120.25 19.716V27.6253C120.25 35.5346 126.506 42.1257 134.427 42.2404C142.406 42.355 148.949 36.0505 149.064 28.0838C149.064 28.0265 149.064 27.9119 149.064 27.8546V19.7733C149.179 19.6014 149.179 19.3721 149.121 19.1428Z" fill="white"/>
<path d="M85.983 13.1822V42.4123H93.5596V41.3807V34.503H100.218C108.139 34.503 114.74 28.2558 114.854 20.3464C114.969 12.3798 108.655 5.84601 100.677 5.67407C100.562 5.67407 100.505 5.67407 100.39 5.67407H86.9587C86.3848 5.67407 85.9256 6.13258 85.9256 6.70572V13.1822H85.983ZM107.335 20.1745C107.335 23.8999 104.293 26.9375 100.562 26.9375H93.5596V13.1822H100.562C104.293 13.1822 107.335 16.2198 107.335 19.9452V20.1745Z" fill="white"/>
<path d="M216.163 5.73138H190.448C189.932 5.73138 189.473 6.1899 189.473 6.70572V13.2395H209.275L208.816 13.7553L189.415 34.7896V42.4123H217.311C217.885 42.4123 218.344 41.9538 218.344 41.3807V34.8469H200.149L218.344 15.0736V5.73138H216.163Z" fill="white"/>
<path d="M181.666 5.73138H155.952C155.378 5.73138 154.919 6.1899 154.919 6.76304V13.2968H174.721L174.262 13.8127L154.919 34.8469V42.4123H182.814C183.388 42.4123 183.847 41.9538 183.847 41.3807V34.8469H165.652L183.847 15.0736V5.73138H181.666Z" fill="white"/>
<path d="M91.0915 57.9444C90.9767 57.7151 90.8045 57.5432 90.6323 57.3712C90.4601 57.1993 90.2305 57.0847 90.0009 56.97C89.7713 56.8554 89.4843 56.7981 89.2547 56.6835C89.0251 56.5688 88.7381 56.5115 88.5085 56.4542C88.2789 56.3969 88.0493 56.2823 87.8771 56.1676C87.7049 56.053 87.5327 55.9384 87.418 55.7664C87.3032 55.5945 87.2458 55.4226 87.2458 55.1933C87.2458 55.0214 87.3032 54.8494 87.3605 54.7348C87.4179 54.5629 87.5327 54.4482 87.6475 54.3336C87.8197 54.219 87.9345 54.1043 88.1067 54.1043C88.3363 54.047 88.5659 53.9897 88.7955 53.9897C89.0251 53.9897 89.2547 54.047 89.4843 54.1043C89.6565 54.1617 89.8287 54.219 89.9435 54.3336C90.0583 54.3909 90.1731 54.4482 90.2879 54.5629C90.3453 54.6202 90.4601 54.6202 90.5175 54.6775C90.5749 54.6775 90.6323 54.6775 90.6897 54.6202C90.7471 54.5629 90.7471 54.5629 90.8045 54.5055L91.0915 53.9897C90.8045 53.7031 90.4601 53.5312 90.0583 53.3593C89.6565 53.2446 89.1973 53.13 88.7955 53.13C88.3937 53.13 88.0493 53.1873 87.7049 53.3019C87.418 53.4166 87.131 53.5885 86.9014 53.7605C86.6718 53.9897 86.4996 54.219 86.3848 54.4482C86.27 54.6775 86.2126 54.9641 86.2126 55.2506C86.2126 55.5372 86.27 55.8811 86.3848 56.1676C86.4996 56.3969 86.6718 56.5688 86.844 56.7408C87.0162 56.9127 87.2458 57.0274 87.4753 57.142C87.7049 57.2566 87.9345 57.3139 88.2215 57.4286L88.9677 57.6578C89.1973 57.7151 89.4269 57.8297 89.5991 57.8871C89.7713 58.0017 89.9435 58.1163 90.0583 58.2883C90.1731 58.4602 90.2305 58.6321 90.2305 58.8614C90.2305 59.0333 90.1731 59.2626 90.1157 59.4345C90.0583 59.6065 89.9435 59.7784 89.7713 59.8931C89.5991 60.0077 89.4269 60.1223 89.2547 60.1796C89.0251 60.2369 88.7955 60.2942 88.5085 60.2942C88.2215 60.2942 87.9345 60.2369 87.7049 60.1796C87.4754 60.1223 87.3032 60.0077 87.131 59.8931C87.0162 59.8357 86.844 59.7211 86.7292 59.6065C86.6718 59.5492 86.557 59.4919 86.4422 59.4919C86.3848 59.4919 86.3274 59.4919 86.27 59.5492C86.2126 59.5492 86.2126 59.6065 86.1552 59.6638L85.8108 60.1796C86.1552 60.5235 86.557 60.7528 86.9588 60.9247C87.4179 61.0966 87.9345 61.2113 88.4511 61.2113C88.8529 61.2113 89.2547 61.154 89.6565 61.0393C90.0009 60.9247 90.2879 60.7528 90.5175 60.5235C90.7471 60.2942 90.9193 60.0077 91.0341 59.7211C91.1489 59.4345 91.2062 59.0907 91.2062 58.7468C91.2636 58.4602 91.2063 58.1736 91.0915 57.9444Z" fill="white"/>
<path d="M105.843 55.5945C105.671 55.0787 105.384 54.6775 104.982 54.2763C104.637 53.9324 104.178 53.6458 103.662 53.4166C103.145 53.1873 102.571 53.13 101.997 53.13C101.423 53.13 100.849 53.2446 100.333 53.4166C99.8734 53.5885 99.4142 53.8751 99.0124 54.2763C98.6681 54.6202 98.3811 55.0787 98.2089 55.5945C97.9793 56.1103 97.9219 56.6835 97.9219 57.2566C97.9219 57.8298 98.0367 58.4029 98.2089 58.9187C98.3811 59.3772 98.6681 59.8357 99.0124 60.1796C99.4142 60.5235 99.816 60.8101 100.333 61.0393C100.849 61.2686 101.423 61.3259 101.997 61.3259C102.571 61.3259 103.145 61.2113 103.662 61.0393C104.121 60.8674 104.58 60.5808 104.982 60.1796C105.326 59.8357 105.613 59.3772 105.843 58.9187C106.072 58.4029 106.13 57.8298 106.13 57.2566C106.13 56.6835 106.015 56.1103 105.843 55.5945ZM104.752 58.5748C104.637 58.9187 104.408 59.2626 104.178 59.5492C103.891 59.8357 103.604 60.0077 103.26 60.1796C102.858 60.3516 102.456 60.4089 102.055 60.4089C101.653 60.4089 101.251 60.3516 100.849 60.1796C100.505 60.065 100.16 59.8357 99.9308 59.5492C99.6438 59.2626 99.4716 58.9187 99.3568 58.5748C99.0698 57.7151 99.0698 56.7981 99.3568 55.9384C99.4716 55.5945 99.6438 55.2506 99.9308 54.9641C100.218 54.6775 100.505 54.4482 100.849 54.3336C101.251 54.1617 101.653 54.1043 102.055 54.1043C102.456 54.1043 102.858 54.1617 103.26 54.3336C103.604 54.4482 103.949 54.6775 104.178 54.9641C104.465 55.2506 104.637 55.5945 104.752 55.9384C105.039 56.7981 105.039 57.7151 104.752 58.5748Z" fill="white"/>
<path d="M118.471 54.1043V53.2446H113.362V61.2686H114.51V57.8297H117.954V56.9127H114.51V54.1043H118.471Z" fill="white"/>
<path d="M124.784 53.2446V54.1617H127.482V61.2686H128.63V54.1617H131.328V53.2446H124.784Z" fill="white"/>
<path d="M148.031 53.2446C147.916 53.2446 147.859 53.2446 147.801 53.3019C147.744 53.3593 147.686 53.4166 147.686 53.4739L145.964 59.0333C145.907 59.148 145.907 59.2626 145.907 59.3772C145.907 59.4918 145.85 59.6065 145.85 59.7211C145.792 59.4918 145.735 59.2626 145.677 59.0333L143.726 53.4739C143.668 53.4166 143.668 53.3593 143.611 53.3019C143.554 53.2446 143.439 53.2446 143.381 53.2446H143.037C142.922 53.2446 142.865 53.2446 142.808 53.3019C142.75 53.3593 142.693 53.4166 142.693 53.4739L140.626 59.0333C140.569 59.148 140.569 59.2626 140.512 59.3772C140.454 59.4918 140.454 59.6065 140.454 59.7211C140.454 59.6065 140.397 59.4918 140.397 59.3772C140.397 59.2626 140.339 59.148 140.339 59.0333L138.617 53.4739C138.617 53.4166 138.56 53.3593 138.503 53.3019C138.445 53.2446 138.33 53.2446 138.273 53.2446H137.355L139.938 61.2686H140.971L143.094 55.1933C143.094 55.136 143.152 55.0787 143.152 55.0214C143.152 54.964 143.209 54.8494 143.209 54.7921C143.267 54.9067 143.267 55.0787 143.324 55.1933L145.448 61.2686H146.481L149.064 53.2446H148.031Z" fill="white"/>
<path d="M158.707 53.2446H157.559L154.23 61.2686H155.091C155.263 61.2686 155.378 61.1539 155.493 60.982L156.296 59.0333L156.583 58.2309L157.903 54.964C157.961 54.8494 157.961 54.7348 158.018 54.6202C158.075 54.5055 158.075 54.3336 158.133 54.219C158.19 54.4482 158.305 54.7348 158.362 54.964L159.683 58.2309L159.97 59.0333L160.773 60.982C160.773 61.0393 160.831 61.0966 160.888 61.1539C160.945 61.2113 161.06 61.2113 161.118 61.2113H161.979L158.707 53.2446Z" fill="white"/>
<path d="M172.655 58.059C172.54 57.9444 172.425 57.8297 172.31 57.7151C172.597 57.6578 172.884 57.5432 173.171 57.3712C173.401 57.2566 173.631 57.0847 173.803 56.8554C173.975 56.6835 174.09 56.4542 174.205 56.1676C174.319 55.9384 174.319 55.6518 174.319 55.3652C174.319 55.0214 174.262 54.7348 174.147 54.4482C174.032 54.1617 173.803 53.9324 173.573 53.7605C173.286 53.5312 172.999 53.4166 172.655 53.3019C172.196 53.1873 171.736 53.13 171.277 53.13H168.924V61.154H170.072V57.8871H170.933C171.048 57.8871 171.162 57.8871 171.277 57.9444C171.392 58.0017 171.449 58.059 171.507 58.1163L173.688 60.982C173.803 61.154 173.975 61.2113 174.147 61.2113H175.18L172.655 58.059ZM171.22 57.0847H170.014V54.047H171.277C171.794 53.9897 172.31 54.1617 172.712 54.3909C173.057 54.6202 173.229 55.0214 173.229 55.4799C173.229 55.7091 173.171 55.9384 173.114 56.1103C173.057 56.2823 172.884 56.4542 172.712 56.6262C172.54 56.7981 172.31 56.9127 172.081 56.97C171.794 57.0847 171.507 57.0847 171.22 57.0847Z" fill="white"/>
<path d="M187.119 54.1043V53.2446H181.953V61.2686H187.119V60.3516H183.101V57.6005H186.316V56.7408H183.101V54.1043H187.119Z" fill="white"/>
<path d="M207.955 53.2446V56.7981H203.478V53.2446H202.33V61.2686H203.478V57.6005H207.955V61.2686H209.103V53.2446H207.955Z" fill="white"/>
<path d="M224.256 55.5945C224.084 55.136 223.797 54.6775 223.452 54.2763C223.051 53.9324 222.649 53.6458 222.132 53.4166C221.616 53.1873 221.042 53.13 220.468 53.13C219.894 53.13 219.32 53.2446 218.803 53.4166C218.344 53.5885 217.885 53.8751 217.54 54.2763C217.196 54.6775 216.909 55.0787 216.737 55.5945C216.565 56.1103 216.45 56.6835 216.45 57.2566C216.45 57.8298 216.565 58.4029 216.737 58.9187C217.139 59.8931 217.885 60.6381 218.861 61.0393C219.377 61.2686 219.951 61.3259 220.525 61.3259C221.099 61.3259 221.673 61.2113 222.19 61.0393C222.649 60.8674 223.108 60.5808 223.51 60.1796C223.854 59.8357 224.141 59.3772 224.313 58.9187C224.543 58.4029 224.6 57.8298 224.6 57.2566C224.6 56.6835 224.486 56.1103 224.256 55.5945ZM223.223 58.5748C223.108 58.9187 222.878 59.2626 222.649 59.5492C222.362 59.8357 222.075 60.0077 221.73 60.1796C221.329 60.3516 220.927 60.4089 220.525 60.4089C220.123 60.4089 219.664 60.3516 219.32 60.2369C218.975 60.1223 218.631 59.8931 218.401 59.6065C218.172 59.3199 217.942 58.976 217.827 58.6321C217.54 57.7724 217.54 56.8554 217.827 55.9957C217.942 55.6518 218.172 55.3079 218.401 55.0214C218.688 54.7348 218.975 54.5055 219.32 54.3909C219.722 54.219 220.123 54.1617 220.525 54.1617C220.927 54.1617 221.329 54.219 221.73 54.3909C222.075 54.5055 222.419 54.7348 222.649 55.0214C222.878 55.3079 223.108 55.6518 223.223 55.9957C223.452 56.7981 223.452 57.7151 223.223 58.5748Z" fill="white"/>
<path d="M237.228 53.2446V58.1163C237.228 58.4029 237.171 58.7468 237.056 59.0333C236.941 59.3199 236.826 59.5492 236.597 59.7784C236.424 60.0077 236.137 60.1223 235.908 60.2369C235.621 60.3516 235.277 60.4089 234.99 60.4089C234.703 60.4089 234.358 60.3516 234.071 60.2369C233.784 60.1223 233.555 59.9504 233.382 59.7784C233.21 59.6065 233.038 59.3199 232.981 59.0907C232.866 58.8041 232.808 58.4602 232.808 58.1736V53.3019H231.66V58.1736C231.66 58.6321 231.718 59.0333 231.89 59.4345C232.005 59.8357 232.234 60.1796 232.521 60.4662C232.808 60.7528 233.153 60.982 233.555 61.154C234.473 61.4978 235.449 61.4978 236.31 61.154C236.711 60.982 237.056 60.7528 237.343 60.4662C237.63 60.1796 237.859 59.8357 237.974 59.4345C238.146 59.0333 238.204 58.5748 238.204 58.1736V53.3019H237.228V53.2446Z" fill="white"/>
<path d="M250.545 57.9444C250.43 57.7151 250.258 57.5432 250.085 57.3712C249.913 57.1993 249.684 57.0847 249.454 56.97C249.224 56.8554 248.995 56.7981 248.708 56.6835L247.962 56.4542C247.732 56.3969 247.502 56.2823 247.33 56.1676C247.158 56.053 246.986 55.9384 246.871 55.7664C246.756 55.5945 246.699 55.4226 246.699 55.1933C246.699 55.0214 246.756 54.8494 246.814 54.7348C246.871 54.5629 246.986 54.4482 247.101 54.3336C247.273 54.219 247.388 54.1043 247.56 54.1043C247.789 54.047 248.019 53.9897 248.249 53.9897C248.478 53.9897 248.708 54.047 248.937 54.1043C249.11 54.1617 249.282 54.219 249.397 54.3336C249.511 54.3909 249.626 54.4482 249.741 54.5629C249.798 54.6202 249.913 54.6202 249.971 54.6775C250.028 54.6775 250.085 54.6775 250.143 54.6202C250.2 54.5629 250.2 54.5629 250.258 54.5055L250.545 53.9897C250.258 53.7031 249.913 53.5312 249.569 53.3593C249.167 53.2446 248.708 53.13 248.306 53.13C247.904 53.13 247.56 53.1873 247.215 53.3019C246.928 53.4166 246.641 53.5885 246.412 53.7605C246.182 53.9897 246.01 54.219 245.895 54.4482C245.78 54.7348 245.723 54.9641 245.723 55.2506C245.723 55.5372 245.78 55.8811 245.895 56.1676C246.01 56.3969 246.182 56.5688 246.354 56.7408C246.527 56.9127 246.756 57.0274 246.986 57.142C247.215 57.2566 247.445 57.3139 247.732 57.4286L248.478 57.6578C248.708 57.7151 248.937 57.8297 249.11 57.8871C249.282 58.0017 249.454 58.1163 249.569 58.2883C249.684 58.4602 249.741 58.6321 249.741 58.8614C249.741 59.0333 249.684 59.2626 249.626 59.4345C249.569 59.6065 249.454 59.7784 249.282 59.8931C249.11 60.0077 248.937 60.1223 248.765 60.1796C248.536 60.2369 248.306 60.2942 248.019 60.2942C247.732 60.2942 247.445 60.2369 247.215 60.1796C246.986 60.1223 246.814 60.0077 246.641 59.8931C246.527 59.8357 246.354 59.7211 246.24 59.6065C246.182 59.5492 246.067 59.4919 245.953 59.4919C245.895 59.4919 245.838 59.4919 245.78 59.5492C245.723 59.5492 245.666 59.6065 245.666 59.6638L245.321 60.1796C245.666 60.5235 246.067 60.7528 246.469 60.9247C246.928 61.0966 247.445 61.2113 247.962 61.2113C248.363 61.2113 248.765 61.154 249.167 61.0393C249.511 60.9247 249.798 60.7528 250.028 60.5235C250.258 60.2942 250.43 60.0077 250.545 59.7211C250.659 59.4345 250.717 59.0907 250.717 58.7468C250.717 58.4602 250.659 58.1736 250.545 57.9444Z" fill="white"/>
<path d="M263 54.1043V53.2446H257.892V61.2686H263V60.3516H258.982V57.6005H262.196V56.7408H258.982V54.1043H263Z" fill="white"/>
<defs>
<linearGradient id="paint0_linear" x1="70.1511" y1="33.4971" x2="-0.000893698" y2="33.4971" gradientUnits="userSpaceOnUse">
<stop stop-color="#A4E9F9"/>
<stop offset="1" stop-color="#8578EA"/>
</linearGradient>
<linearGradient id="paint1_linear" x1="62.0402" y1="49.0084" x2="8.1802" y2="17.8619" gradientUnits="userSpaceOnUse">
<stop stop-color="#00C6C1"/>
<stop offset="1" stop-color="#6E3AE8"/>
</linearGradient>
<linearGradient id="paint2_linear" x1="-0.000429726" y1="50.2386" x2="47.1644" y2="50.2386" gradientUnits="userSpaceOnUse">
<stop stop-color="#5626AD"/>
<stop offset="0.44" stop-color="#632CC9" stop-opacity="0.52"/>
<stop offset="0.82" stop-color="#6E31DE" stop-opacity="0.15"/>
<stop offset="1" stop-color="#7233E7" stop-opacity="0"/>
</linearGradient>
<linearGradient id="paint3_linear" x1="28.2401" y1="8.91971" x2="46.0595" y2="-1.38213" gradientUnits="userSpaceOnUse">
<stop stop-color="#5626AD"/>
<stop offset="0.44" stop-color="#632CC9" stop-opacity="0.52"/>
<stop offset="0.82" stop-color="#6E31DE" stop-opacity="0.15"/>
<stop offset="1" stop-color="#7233E7" stop-opacity="0"/>
</linearGradient>
<linearGradient id="paint4_linear" x1="35.0762" y1="16.9076" x2="70.1371" y2="16.9076" gradientUnits="userSpaceOnUse">
<stop stop-color="#00C6C1"/>
<stop offset="1" stop-color="#00C6C1" stop-opacity="0"/>
</linearGradient>
<linearGradient id="paint5_linear" x1="67.0303" y1="36.6175" x2="38.8749" y2="8.42053" gradientUnits="userSpaceOnUse">
<stop stop-color="#33D1CD" stop-opacity="0"/>
<stop offset="1" stop-color="#00C6C1"/>
</linearGradient>
</defs>
</svg>
