<svg width="19" height="22" viewBox="0 0 19 22" fill="none" xmlns="http://www.w3.org/2000/svg">
<path fill-rule="evenodd" clip-rule="evenodd" d="M5.42344 21.1111C4.98856 21.1111 4.57583 21.0773 4.18739 21.0108L3.95728 20.9676C1.45456 20.4472 0 18.5303 0 15.6127V5.49839C0 5.14583 0.0211111 4.80806 0.0633333 4.48506C0.431722 1.65089 2.37922 0 5.42344 0H13.5776C16.9512 0 18.9683 2.02667 19 5.41711V5.49839V15.6127C19 19.0507 16.9776 21.1111 13.5776 21.1111H5.42344ZM5.42346 1.53798C2.83101 1.53798 1.51685 2.87114 1.51685 5.49842V15.6128C1.51685 18.24 2.83101 19.5732 5.42346 19.5732H13.5681C16.1595 19.5732 17.4652 18.24 17.4652 15.6128V5.49842C17.4652 2.87114 16.1595 1.53798 13.5681 1.53798H5.42346ZM14.0452 15.0248C14.0452 14.6026 13.7085 14.2606 13.2926 14.2606H5.68097C5.26508 14.2606 4.9273 14.6026 4.9273 15.0248C4.9273 15.447 5.26508 15.789 5.68097 15.789H13.2926C13.7085 15.789 14.0452 15.447 14.0452 15.0248ZM13.2926 9.78612C13.5829 9.75445 13.8668 9.89378 14.022 10.144C14.1772 10.3962 14.1772 10.715 14.022 10.9673C13.8668 11.2175 13.5829 11.3568 13.2926 11.3251H5.68101C5.29468 11.2808 5.00229 10.9504 5.00229 10.5556C5.00229 10.1608 5.29468 9.8294 5.68101 9.78612H13.2926ZM9.26469 6.0916C9.26469 5.69683 8.9723 5.36538 8.58596 5.3221H5.69057C5.30319 5.36538 5.0108 5.69683 5.0108 6.0916C5.0108 6.48533 5.30319 6.81677 5.69057 6.86005H8.58596C8.9723 6.81677 9.26469 6.48533 9.26469 6.0916Z" fill="#818181"/>
</svg>
