<svg width="40" height="32" viewBox="0 0 40 32" fill="none" xmlns="http://www.w3.org/2000/svg">
<path d="M39.454 3.8012C38.0055 4.42605 36.4292 4.87576 34.8055 5.0509C36.4912 4.04942 37.7536 2.46723 38.3558 0.601203C36.7739 1.54222 35.041 2.20207 33.2339 2.5515C32.4786 1.74405 31.5651 1.1008 30.5504 0.66183C29.5356 0.22286 28.4413 -0.00242264 27.3357 1.96469e-05C22.8623 1.96469e-05 19.2647 3.62605 19.2647 8.07575C19.2647 8.70061 19.3404 9.32546 19.4635 9.92664C12.7653 9.57635 6.79132 6.37635 2.81973 1.47694C2.09606 2.71299 1.71683 4.12038 1.7215 5.55268C1.7215 8.35504 3.14635 10.826 5.31913 12.2793C4.03868 12.2289 2.78821 11.8769 1.66943 11.2521V11.3515C1.66943 15.2757 4.44339 18.5278 8.14043 19.2757C7.44627 19.4561 6.73218 19.5483 6.01499 19.5503C5.48955 19.5503 4.9925 19.4982 4.49073 19.4272C5.51321 22.6272 8.49073 24.9515 12.0363 25.0272C9.26232 27.2 5.78777 28.4781 2.01499 28.4781C1.33807 28.4781 0.713218 28.4544 0.0646973 28.3787C3.64339 30.6746 7.88954 32 12.4623 32C27.3073 32 35.4304 19.7018 35.4304 9.02723C35.4304 8.67694 35.4304 8.32664 35.4067 7.97635C36.9783 6.82605 38.3558 5.4012 39.454 3.8012Z" fill="#505462"/>
</svg>
